<?xml version="1.0" encoding="UTF-8"?>
<svg id="Layer_1" data-name="Layer 1" xmlns="http://www.w3.org/2000/svg" viewBox="0 0 512 512">
  <defs>
    <style>
      .cls-1 {
        fill: #c8c8c8;
      }

      .cls-1, .cls-2 {
        stroke-width: 0px;
      }

      .cls-2 {
        fill: #fff;
      }
    </style>
  </defs>
  <rect class="cls-1" x=".5" y=".5" width="512" height="512"/>
  <g>
    <path class="cls-2" d="M432.43,528.86H79.85c-.87-13.17.35-25.99,3.32-38.66,6.36-27.11,19.51-50.43,39.17-70.15,1.67-1.67,3-4,3.69-6.26,10.96-35.82,17.41-72.46,19.67-109.85.2-3.32.54-6.65,1.03-9.94.98-6.64.6-12.8-1.63-19.47-3.55-10.63-2.12-21.37,4.65-30.96,1.14-1.62,1.8-3.93,1.83-5.93.15-11.66.13-23.33-.02-34.99-.08-6.31,2.09-11.3,7.22-15.09,1.22-.9,2.29-2.42,2.77-3.87,10.65-32.64,32.92-52.35,66.25-59.87,1.13-.26,2.24-.62,3.35-.93.47-15.37,10.66-26.11,25.31-25.86,13.16.22,21.85,9.78,23.55,25.78,3.55.94,7.24,1.83,10.87,2.91,29.35,8.71,48.6,27.82,58.5,56.66.75,2.17,2.32,4.29,4.05,5.86,3.93,3.57,6.35,7.7,6.24,13.06-.2,9.98-.52,19.96-.74,29.94-.11,5,.34,9.55,3.49,14.11,6.83,9.9,7.01,21.05,2.91,32.02-1.52,4.07-2.18,7.78-1.69,12.01,3.4,28.92,4.78,58.12,12.03,86.5,3.01,11.77,5.87,23.57,8.97,35.32.48,1.81,1.51,3.78,2.89,5,24.24,21.44,36.35,49.28,41.9,80.34,1.86,10.41,2.02,21.13,3.01,32.33ZM415.79,512.66c-1.48-8.42-2.29-16.58-4.39-24.39-10.98-40.68-34.53-70-76.06-82.65-6.43-1.96-7.65-1.02-7.65,5.75,0,21.33,0,42.65,0,63.98v5.35h-64.33v-71.66c-23.38,0-46.2.1-69.02-.11-3.53-.03-7.36-.87-10.46-2.48-2.81-1.46-4.99-1.75-7.9-.8-23.87,7.78-42.43,22.61-56.82,42.85-13.6,19.12-21.36,40.41-23.09,64.14h59.23c-.48-1.48-.85-2.57-1.19-3.66-5.67-17.9-1.15-33.82,9.59-48.43,2.91-3.96,7.36-4.65,11.02-2.23,3.78,2.5,4.63,7.05,2.07,11.42-1.01,1.72-2.24,3.31-3.25,5.03-6.4,10.87-8.07,22.02-2.26,33.77,1.58,3.21,3.5,4.55,7.26,4.51,21.32-.2,42.65-.09,63.98-.11,1.61,0,3.21-.14,4.88-.22.7-6.48-1.78-15.16,7.8-15.48,10.62-.35,7.91,9.18,8.7,15.7,24.01,0,47.48.05,70.96-.12,1.41,0,3.33-1.4,4.12-2.69,4.14-6.78,6.19-14.32,3.84-21.99-1.92-6.26-5.14-12.16-8.16-18.02-2.43-4.72-1.9-9.35,2.01-11.88,3.8-2.46,8.22-1.55,11.31,2.75,10.7,14.9,15.03,31.01,8.85,48.99-.29.85-.34,1.78-.5,2.66h59.47ZM327.88,241.42h-144.19c0,14.02-.39,27.67.09,41.3.8,22.81,9.13,42.73,24.72,59.44,1.46,1.57,4.24,2.67,6.42,2.68,27.15.18,54.3.18,81.44,0,2.18-.01,4.88-1.15,6.43-2.68,11.16-11.09,17.57-24.86,21.85-39.79,5.74-19.99,1.52-40.4,3.24-60.96ZM178.35,184.58h154.67c-.44-1.37-.67-2.33-1.05-3.22-10.7-25.41-30.78-38.33-57.15-42.74-1.37-.23-3.19.54-4.42,1.39-9.67,6.68-19.66,6.73-29.28.17-1.36-.93-3.34-1.74-4.86-1.5-16.71,2.63-31.56,9.2-43.36,21.67-6.56,6.93-11.59,14.81-14.56,24.23ZM167.68,224.58h175.63v-23.16h-7.39c-.82,12.18-2.5,15.8-7.97,15.49-10.38-.6-7.88-9.08-8.51-15.54h-7.57c-.66,6.38,1.75,15.05-7.79,15.37-10.64.35-7.91-9.18-8.65-15.42h-7.57c-.68,6.43,1.82,15.34-8.13,15.44-10.31.1-7.44-9.25-8.44-15.31h-103.61v23.14ZM191.86,392.74h7.04c.28-.34.48-.47.48-.6.08-4.65.12-9.31.22-13.97.12-5.56,3.08-9.02,7.77-9.18,4.87-.16,8.19,3.44,8.29,9.16.08,4.78.02,9.57.02,14.45h31.92c0-5-.05-9.65.01-14.29.09-5.83,3.23-9.38,8.13-9.31,4.86.06,7.86,3.62,7.93,9.52.06,4.75.01,9.51.01,14.13h31.36c.26-.44.4-.58.41-.72.06-4.49.08-8.99.16-13.48.1-5.89,3.12-9.43,8-9.45,4.88-.02,7.99,3.53,8.07,9.38.07,4.77.01,9.54.01,14.28h7.48v-31.24h-127.29v31.32ZM364.25,399.48c-3.52-17.3-7.65-34.44-10.35-51.8-2.7-17.32-3.97-34.87-5.87-52.24-4.11-.06-5.66,1.64-6.42,5.18-3.25,15.11-9.07,29.17-17.97,41.89-.52.74-.86,1.59-1.38,2.58,9.97,3.32,13.87,10.13,13.49,20.01-.3,7.8-.06,15.63-.06,23.19,9.71,3.81,19.11,7.49,28.56,11.2ZM164.32,294.41c-.56.34-1.12.67-1.69,1.01-2.58,35.46-6.23,70.76-16.12,104.9,9.27-3.68,18.1-7.06,26.78-10.78,1.15-.49,2.17-2.68,2.21-4.12.22-7.82.06-15.66.12-23.48.05-6.53,3-11.48,8.59-14.81,1.49-.89,3.12-1.57,4.91-2.46-10.02-13.94-16.29-29.02-20-45.28-.44-1.93-3.15-3.34-4.8-4.99ZM280.06,409.16v55.5h31.15v-55.5h-31.15ZM263.55,121.21c.11-4.28-3.42-8-7.72-8.12-4.27-.13-8,3.41-8.12,7.71-.12,4.27,3.42,8.01,7.71,8.13,4.28.12,8.01-3.43,8.13-7.71ZM344.01,249.64v28.68c10.47-5.69,10.58-21.86,0-28.68ZM167.37,249.55c-7.11,3.84-7.97,9.83-7.7,16.39.22,5.48,2.24,9.77,7.7,12.8v-29.19Z"/>
    <path class="cls-2" d="M253.93,337.13c-14.55-1.24-26.99-7.49-36.53-19.19-2.98-3.65-2.27-8.34,1.16-11.14,3.41-2.78,7.86-2.58,11.17,1.07,5.28,5.83,11.34,10.39,19.09,12.07,11.57,2.51,21.14-2.03,29.76-9.26,1.4-1.17,2.53-2.66,3.93-3.83,3.38-2.85,7.89-2.78,10.88.04,3.15,2.97,3.49,7.76.4,11.23-10.48,11.75-23.66,18.01-39.86,19.01Z"/>
    <path class="cls-2" d="M218.81,281.08c-9.11-.32-17.02-3.37-23.72-9.38-4.07-3.65-4.62-8.31-1.59-11.9,3.04-3.61,7.66-3.77,11.97-.41,9.01,7.04,16.93,7.38,26.55,1.12,1.11-.73,2.14-1.59,3.29-2.26,3.91-2.28,8.18-1.56,10.74,1.73,2.68,3.43,2.27,8.06-1.33,11.16-7.45,6.43-16.2,9.62-25.91,9.94Z"/>
    <path class="cls-2" d="M289.54,281.04c-7.68-.19-15.75-3.27-22.56-9.45-4.01-3.64-4.48-8.38-1.39-11.91,3.1-3.54,7.64-3.62,11.99-.19,8.62,6.79,16.39,7.24,25.72,1.46,1.13-.7,2.18-1.53,3.3-2.24,4.36-2.78,8.84-2.24,11.55,1.38,2.69,3.59,1.93,8.17-1.9,11.5-6.43,5.6-16.61,9.41-26.71,9.45Z"/>
  </g>
</svg>