<?xml version="1.0" encoding="utf-8"?>
<!-- Generator: Adobe Illustrator 28.1.0, SVG Export Plug-In . SVG Version: 6.00 Build 0)  -->
<svg version="1.1" id="Layer_1" xmlns="http://www.w3.org/2000/svg" xmlns:xlink="http://www.w3.org/1999/xlink" x="0px" y="0px"
	 viewBox="0 0 512 512" style="enable-background:new 0 0 512 512;" xml:space="preserve">
<style type="text/css">
	.st0{fill:#C8C8C8;}
	.st1{fill:#FFFFFF;}
</style>
<g>
	<rect x="2.5" y="2.5" class="st0" width="507" height="508"/>
	<path class="st0" d="M507.5,4.5v504H4.5V4.5H507.5 M511.5,0.5H0.5v512h511V0.5L511.5,0.5z"/>
</g>
<g>
	<path class="st1" d="M373.3,253.9H138.7c0,0-11.7,164.3-11.7,222.9h258.1C385.1,418.1,373.3,253.9,373.3,253.9L373.3,253.9z"/>
	<path class="st1" d="M420.3,512v-19.2c0-38.9-31.5-74.6-70.4-74.6H162.1c-38.9,0-70.4,35.7-70.4,74.6V512H420.3L420.3,512z"/>
	<path class="st1" d="M203.3,418.1c0,0,26.8,42.1,51.2,42.1s51.2-42.1,51.2-42.1v-36.8H203.3V418.1L203.3,418.1z"/>
	<path class="st1" d="M203.3,394.9c15.6,13.8,30.1,17.3,51.1,17.3s35.7-3.5,51.2-17.3v-40.2H203.3V394.9L203.3,394.9z"/>
	<path class="st1" d="M298.2,130.8c-22.6-7.3-75.7-5.3-89,12c-34.5,0.7-75.1,31.9-80.4,73.1c-5.3,40.8,6.5,59.7,10.6,90.4
		c4.7,34.7,24.2,45.8,39.9,50.5c22.5,29.7,46.3,28.4,86.4,28.4c78.3,0,115.6-52.4,118.9-141.4C386.6,190,355,149.2,298.2,130.8
		L298.2,130.8z"/>
	<path class="st1" d="M343,247.6c-7.6-10.5-17.3-18.9-38.5-21.9c8,3.6,15.6,16.3,16.6,23.3c1,7,2,12.6-4.3,5.6
		c-25.3-27.9-52.8-16.9-80.1-34c-19.1-11.9-24.9-25.1-24.9-25.1s-2.3,17.6-31.2,35.5c-8.4,5.2-18.4,16.8-23.9,33.9
		c-4,12.3-2.8,23.3-2.8,42c0,54.7,45.1,100.6,100.6,100.6s100.6-46.4,100.6-100.6C355.2,272.8,351.6,259.5,343,247.6L343,247.6
		L343,247.6z"/>
	<path class="st0" d="M265.6,334.8h-22.4c-3.1,0-5.6-2.5-5.6-5.6s2.5-5.6,5.6-5.6h22.4c3.1,0,5.6,2.5,5.6,5.6
		S268.7,334.8,265.6,334.8z"/>
	<path class="st0" d="M209.7,295.7c-6.2,0-11.2-5-11.2-11.2v-11.2c0-6.2,5-11.2,11.2-11.2s11.2,5,11.2,11.2v11.2
		C220.9,290.7,215.9,295.7,209.7,295.7L209.7,295.7L209.7,295.7z M299.2,295.7c-6.2,0-11.2-5-11.2-11.2v-11.2
		c0-6.2,5-11.2,11.2-11.2s11.2,5,11.2,11.2v11.2C310.4,290.7,305.3,295.7,299.2,295.7L299.2,295.7z"/>
	<path class="st0" d="M255.9,381.5c-32.3,0-42.2-8.3-43.9-10c-3.1-2.9-3.2-7.8-0.3-10.9s7.8-3.2,10.9-0.3l0,0
		c0.6,0.4,8.5,5.7,33.3,5.7s33.3-5.7,33.4-5.8c2.9-2.9,7.7-2.9,10.6,0c0,0,0.1,0.1,0.1,0.1c3,3.1,2.9,8-0.2,11
		C298.2,373.2,288.2,381.5,255.9,381.5"/>
	<path class="st1" d="M138.7,256.5l21.9,20.8c0,0,14,38.2,0,44.9c-31.3,15-57.1-62-57.1-77C103.5,234,138.7,256.5,138.7,256.5
		L138.7,256.5L138.7,256.5z M366.3,256.5l-21.9,20.8c0,0-14,38.2,0,44.9c31.3,15,64.2-62,64.2-77C408.5,234,366.3,256.5,366.3,256.5
		L366.3,256.5L366.3,256.5z"/>
	<path class="st1" d="M150.4,235.9L138.7,512h46.9c0,0-30.8-246.6-11.7-276.1C182.1,223.2,150.4,235.9,150.4,235.9L150.4,235.9
		L150.4,235.9z M362.3,242.1L374,512h-47.6c0,0,31.5-240.4,12.4-269.9C330.6,229.4,362.3,242.1,362.3,242.1L362.3,242.1z"/>
</g>
</svg>
