<?xml version="1.0" encoding="utf-8"?>
<!-- Generator: Adobe Illustrator 28.1.0, SVG Export Plug-In . SVG Version: 6.00 Build 0)  -->
<svg version="1.1" id="Layer_1" xmlns="http://www.w3.org/2000/svg" xmlns:xlink="http://www.w3.org/1999/xlink" x="0px" y="0px"
	 viewBox="0 0 512 512" style="enable-background:new 0 0 512 512;" xml:space="preserve">
<style type="text/css">
	.st0{fill:#C8C8C8;}
	.st1{fill:#FFFFFF;}
</style>
<g>
	<rect x="2.5" y="2.5" class="st0" width="507" height="508"/>
	<path class="st0" d="M507.5,4.5v504H4.5V4.5H507.5 M511.5,0.5H0.5v512h511V0.5L511.5,0.5z"/>
</g>
<path class="st1" d="M256,119.5c-48.5,0-87.8,43.2-87.8,96.5c0.1,24.5,15.1,48,30.3,65.8l-48-6.7c1.1,4.2,1.4,8.9-0.2,13.8
	c-2.2,6.5-8.3,10.3-13.1,11.8c-4.8,1.3-9.1,1.4-12.9,1.6c-14.4-0.4-6.6,3.8-0.4,9.8c3.3,3.2,7.1,6.7,10.2,11.4
	c3.2,4.8,5.6,12.1,3.2,19.1c-2.3,6.7-8.3,10.8-13.3,12.5c-4.9,1.6-9.7,2.1-13.8,2.5c-9.1,1.5-12.8-0.3-9.4,8.7
	c1.4,3.5,3.9,7.8,6.8,11.8l71.7,20.5c-13.4,40.1-32.9,87.1-50.5,130c1.6-0.7,3.3-1.2,5.1-1.7c6.7-2,14.4-1.8,20.3,1.4
	c5.9,3.3,8.7,10,9.1,14.9c0.6,4.9-0.1,9.2-0.7,13.1c-2.6,14,2.4,7.4,9.6,2.2c3.8-2.6,8-5.8,13.2-8c5.3-2.2,12.8-3.3,19.3,0.4
	c6.1,3.4,9,10,9.9,15.3c0.1,0.8,0.2,1.5,0.2,2.3c9.7-19.8,24.6-42.9,41.4-42.9s31.7,23.2,41.4,42.9c0-0.8,0.1-1.5,0.2-2.3
	c0.9-5.3,3.7-11.9,9.9-15.3c6.5-3.7,14-2.6,19.3-0.4c5.2,2.2,9.3,5.4,13.2,8c10.5,6.8,11.1,10.4,9.5-2.2c-0.5-3.8-1.2-8.1-0.7-13.1
	c0.4-4.9,3.2-11.6,9.1-14.9c3.4-1.9,6.9-2.6,10.4-2.7c3.4-0.1,6.8,0.4,9.9,1.3c1.8,0.4,3.4,1,5.2,1.7
	c-17.6-42.8-37.1-89.6-50.5-129.5l71.4-20.8c3-4,5.6-8.3,7-12c4.1-8.9-3.1-7.8-9.4-8.7c-4.2-0.4-8.9-0.9-13.8-2.5
	c-4.9-1.8-11-5.8-13.3-12.5c-2.4-7,0-14.3,3.2-19.1c3.1-4.7,6.9-8.2,10.2-11.4c8.2-9,12.5-9.3-0.4-9.8c-3.8-0.2-8.1-0.3-13-1.6
	c-4.7-1.4-10.9-5.3-13.1-11.8c-1.6-4.8-1.3-9.5-0.2-13.8l-48.3,6.9c15.4-17.8,30.5-41.4,30.6-66C343.9,162.8,304.6,119.5,256,119.5
	L256,119.5L256,119.5z M220.9,191.9c9.7,0,17.6,7.9,17.6,17.5s-7.9,17.6-17.6,17.6s-17.6-7.9-17.6-17.6S211.2,191.9,220.9,191.9z
	 M291.1,191.9c9.7,0,17.6,7.9,17.6,17.5s-7.9,17.6-17.6,17.6s-17.6-7.9-17.6-17.6S281.5,191.9,291.1,191.9z M210.3,237.6
	C226.7,254,241.7,261,256,261s29.3-7,45.7-23.5l14,14.1c-18.8,18.7-38.9,29.2-59.7,29.2s-40.9-10.5-59.7-29.2L210.3,237.6
	L210.3,237.6z M105.6,268.7c-87.8,0-87.8,81.2-35.1,98.8l10.8,3.1c-1.8-5.4-2.6-11.3-0.5-17.5c2.3-6.7,8.3-10.8,13.3-12.5
	c4.9-1.6,9.7-2.1,13.8-2.5c15.6-1.4,10.3-4.2,2.1-11.9c-3.3-3.3-7.1-6.8-10.2-11.6c-3.1-4.7-5.4-12.2-2.7-19.2
	c2.4-6.4,8.6-10,13.4-11.3c7.2-2.1,13.8-0.8,21.1-2.4c-0.4-3.8-2.4-6.8-4.4-9.9L105.6,268.7L105.6,268.7z M406.4,268.7l-21.5,3.1
	c-2,3.1-4.1,6.1-4.4,9.9c7.1,1.3,14.7,0.7,21.1,2.4c4.8,1.3,11,4.9,13.4,11.3c2.6,7,0.3,14.5-2.7,19.2c-3.1,4.8-6.9,8.3-10.2,11.6
	c-11.3,11.2-11.6,10.1,2.1,11.9c4.2,0.4,8.9,0.9,13.8,2.5c4.9,1.8,11,5.8,13.3,12.5c2.1,6.1,1.3,12.1-0.4,17.6l10.8-3.2
	C494.2,350,494.2,268.8,406.4,268.7L406.4,268.7L406.4,268.7z M203.3,301.7l36.1,21.1c2.4-7.1,9.1-11.9,16.6-11.9
	c7.5,0,14.2,4.7,16.6,11.9l36.1-21.1v52.7l-38.2-15.9c-3.3,4.7-8.7,7.6-14.5,7.6s-11.2-2.9-14.5-7.6l-38.2,15.9L203.3,301.7
	L203.3,301.7z M256,367.5c9.7,0,17.6,7.9,17.6,17.6s-7.9,17.6-17.6,17.6s-17.6-7.9-17.6-17.6S246.3,367.5,256,367.5z M256,424.6
	c9.7,0,17.6,7.9,17.6,17.6s-7.9,17.6-17.6,17.6s-17.6-7.9-17.6-17.6S246.3,424.6,256,424.6z M142.1,545.5c-0.8,0-1.9,0.1-3.3,0.5
	c-3.6,0.9-8.2,3-12.5,5.4c-4.7,2.7-8.8,4.4-10.8,9.3c-33.6,67.2,45.3,86.2,83,41.6c-2.1-3.1-3.2-6.4-3.6-9.3
	c-0.8-5.3-0.4-9.9-0.1-14c-0.1-3.5,0.8-7.4-0.1-10.8c-2.6,0.5-8.2,4.5-11.1,6.5c-3.8,2.7-8,5.8-13.3,8c-5.2,2.2-12.9,3.1-19.3-0.8
	h-0.1c-5.8-3.6-8.2-10.3-8.7-15.2c-0.4-4.9,0.2-9.2,0.8-13c0.4-3.7,0.7-6.8,0.6-8.3L142.1,545.5L142.1,545.5z M368.5,545.5
	c-0.1,1.5,0.1,4.6,0.5,8.3c0.5,3.7,1.2,8,0.8,13c-0.4,4.8-2.9,11.5-8.7,15.2h-0.1c-6.4,3.8-14.2,3-19.3,0.8c-5.3-2.2-9.4-5.3-13.3-8
	c-3.5-2.3-7.4-5.4-11.1-6.5c-0.5,3.3-0.2,7.8-0.1,10.8c0.3,4.2,0.7,8.8-0.1,14c-0.4,3-1.5,6.3-3.6,9.3c37.7,44.6,116.6,25.6,83-41.6
	c-1.4-4.9-7.1-7.2-10.8-9.3c-4.3-2.4-8.9-4.5-12.5-5.4C371.7,545.5,370.2,545.5,368.5,545.5L368.5,545.5L368.5,545.5z"/>
</svg>
