<?xml version="1.0" encoding="utf-8"?>
<!-- Generator: Adobe Illustrator 28.1.0, SVG Export Plug-In . SVG Version: 6.00 Build 0)  -->
<svg version="1.1" id="Layer_1" xmlns="http://www.w3.org/2000/svg" xmlns:xlink="http://www.w3.org/1999/xlink" x="0px" y="0px"
	 viewBox="0 0 512 512" style="enable-background:new 0 0 512 512;" xml:space="preserve">
<style type="text/css">
	.st0{fill:#C8C8C8;}
	.st1{fill:#FFFFFF;}
</style>
<g>
	<rect x="2.5" y="2.5" class="st0" width="507" height="508"/>
	<path class="st0" d="M507.5,4.5v504H4.5V4.5H507.5 M511.5,0.5H0.5v512h511V0.5L511.5,0.5z"/>
</g>
<path class="st1" d="M290,513.6h-73.5c-0.5-2.1-0.6-4.1,2.2-4.9c0.9-0.3,1.1-1.4,1.1-2.4c0.2-2.8,0.4-5.6-0.5-8.4
	c-2-6-3.4-12.2-5.4-18.3c-1.2-3.8-3.2-6.6-6-8.7c-2.9-2.1-5.5-4.8-8.9-6.2c-0.6-0.2-1.2-1-1.5-1.6c-1.1-3-3.4-3.8-6.2-3.9
	c-1,0-2.1,0.1-2.7-0.9c-1.4-2.1-3.4-3-5.5-4.2c-4.9-2.8-9.4-6.4-13-10.9c-1.6-2-3.1-4.1-6-4.5c-1.1-0.1-1.6-1.3-2.4-2.1
	c-2-2.2-2.9-5.1-4.8-7.5c-2.6-3.2-5.7-6.6-3.8-11.5c0.1-0.4,0.2-1,0-1.2c-1.8-1.4-1.9-3.6-2.8-5.3c-2.1-3.7-6.5-5.6-8-9.9
	c-0.1-0.4-1-0.5-1.5-0.6c-2.2-0.5-3.5-1.5-3-4.2c0.4-2.2-0.4-3.9-3-4.3c-1.9-0.3-2.6-1.5-2.7-3.3c0-1.2,0-2.5,0-3.7
	c0-1.9-1-2.9-2.8-3.2c-0.7-0.1-1.5-0.1-2.2-0.3c-2.2-0.5-2.7-1.5-1.8-3.6c0.3-0.7,0.6-1.4,1.1-1.9c1.4-1.6,1.3-3.2,0.2-4.7
	c-1.1-1.4-2.7-1.5-4.2-0.5c-0.7,0.4-1.4,0.5-2-0.1c-0.6-0.7-0.5-1.6,0.1-2c3.1-2.3,2.4-5.9,2.9-8.9c0.4-2.2,0-5.1-1.8-7.2
	c-1.6-1.7-1.6-3.1,0.1-4.7c1-1,2.2-1.8,3.3-2.7c2.6-2.1,2.6-2.7,0-4.8c-1.4-1.1-1.3-2.4,0.5-2.8c2.1-0.5,2.7-1.8,3-3.7
	c0.2-1.5-0.1-3-0.1-4.4c0.2-3.9-0.6-6.9-5.3-7.3c-0.9-0.1-1.7-0.8-1.5-1.9c0.2-1.2,1.3-1.3,2.2-1.1c4.6,1.1,9.2-0.3,13.7-0.6
	c2.6-0.2,3.3-1.8,2.1-4.2c-1.7-3.1-1.3-3.9,2.2-4.6c1.4-0.3,3.1-0.1,3.8-1.5c1.2-2.3,3.3-3.1,5.4-4c1.8-0.8,2-2.1,0.7-3.5
	c-0.4-0.4-0.9-0.8-1.3-1.2c-1.4-1.5-1.1-2.6,0.9-3.2c1.4-0.4,2.8-0.5,4.1-0.8c1.9-0.3,4.1-1.4,4.1-3c0.1-2.6,1.8-4.1,2.6-6.2
	c0.8-1.9,2.1-3.3,4-4.2c2.9-1.5,3.1-3.1,0.5-5.2c-0.8-0.7-1.7-1.4-1.4-2.4c0.8-2.3,0.5-4.8,1.3-7.1c0.6-1.6,1-3.5,2.5-4.4
	c1.6-1,1.9-2.3,1.9-4c0-1.4-0.5-3,0.6-4.1c2.8-2.8,3.2-7.3,6.6-9.7c0.4-0.2,0.6-0.9,0.6-1.3c0.1-2.6,1.4-4.7,3-6.7
	c1.5-2,2.8-4,3.8-6.3c1.3-3,2.3-6.4,5.9-7.9c1-0.4,1.9-1.7,2.2-2.9c0.3-1.1,1.1-1.8,1.6-2.7c2-3.2,5-5.5,7.1-8.4
	c2.4-3.4,5.5-5.9,8.2-8.9c1-1.1,2.3-1.7,3.8-2.1c4.7-1.2,9.3-2.7,13-6.1c1.3-1.2,2.8-2.5,4.4-3.2c2.5-1.1,4.2-3.1,6.1-5
	c1.4-1.4,2.4-3,2.9-4.9c0.5-2.1-0.1-2.8-2.2-2.3c-1,0.2-1.9,0.3-2.9,0c-0.6-0.2-1.4-0.2-1.5-1c-0.1-0.8,0.6-1.1,1.2-1.4
	c1.6-0.8,3.3-1.6,4.9-2.4c1.2-0.6,2.5-1,3.8-0.5c1.9,0.7,2.6-0.5,2.8-2.1c0.1-0.9,0.1-1.8-0.1-2.7c-1.8-6.9-2.6-13.8-2.3-20.9
	c0.1-3.3-1.9-4.1-4.8-2.4c-1.9,1.1-2.3,2.9-2.6,4.8c-0.1,0.8-0.1,1.8-1.2,1.8c-0.9,0-1.5-0.7-1.9-1.4c-0.4-0.8-0.5-1.8-0.3-2.7
	c0.7-2.4,1.2-4.8,2.6-6.9c0.8-1.2,1.7-2.3,3.2-2.5c1.6-0.2,1.8-1,1.2-2.4c-2.4-6.1-6.1-11.1-12-14.2c-0.6-0.3-1.1-0.7-1.4-1.4
	c-0.4-0.9-0.9-1.9-0.2-2.8c0.7-0.8,1.6-0.7,2.5-0.4c1.2,0.4,2.5,0.9,3.7,1.5c1.2,0.6,2.2,0.5,3.1-0.5c1-1.1,2.4-1.9,1.7-3.8
	c-0.7-1.9-1.4-3.9-2.3-5.8c-3.1-6.8-3.5-14.1-3.2-21.4c0-1.1,0.3-2.2,0.8-3.1c2-3.5,3.2-7.2,4.1-11.1c0.2-0.8,0.5-1.4,1.6-0.9
	c3.1,1.5,5.6,1,7.6-1.7c1.5-2,3.2-4,3.4-6.8c0.2-1.8,1.4-3.1,2.5-4.5c0.4-0.6,1.2-0.9,2-0.7c0.9,0.2,1.1,0.9,1.2,1.7
	c0.2,3.8,0.4,7.7-2.6,10.8c-2.1,2.2-2.1,4.8-1.1,7.4c0.9,2.2,2.7,3.8,4.6,5.1c1.4,0.9,2.2-1.1,3.4-1.4c0.6-0.2,1.1-0.3,1.7-0.4
	c4.6-0.9,9.2-0.2,13.6,1c3,0.8,6.1,1.9,9.1,2.1c4.2,0.3,8.8,0.8,12.4-2.7c0.2-0.2,0.4-0.3,0.6-0.4c0.9-0.4,1.8-0.4,2.4,0.5
	c0.6,0.8,0.2,1.6-0.5,2.2c-2.6,1.9-5.2,3.8-8.5,4.4c-1.1,0.2-2.3,0.4-3.3,1c-0.9,0.6-1.1,1.8-0.2,1.9c2.4,0.3,4.5,2.4,6.8,1.6
	c3.2-1.1,6.5-1,9.8-1c2.4,0,4.5-0.4,6.4-2.2c1.4-1.3,3.3-1.5,5.1-1.1c1.2,0.3,2.2,1.2,1.1,2.3c-1.2,1.2-2.2,2.6-3.6,3.7
	c-4.9,3.5-10.7,3.7-16.2,3.6c-6.7-0.1-13.6,0.1-20.2-1.7c-1.4-0.4-2.9-0.5-4.4-0.5c-6.2-0.1-11.3,4.8-11.5,11.1
	c-0.1,2.7,0,5.3,0,7.9c0,1.8,0.5,3.6,0.9,5.4c0.4,1.4,1.5,1.8,2.8,2.1c1.4,0.3,1.9-0.7,2.3-1.7c0.4-1,1.2-1.8,2-2.5
	c0.9-0.8,1.6-1.9,2.9-1.2c1.2,0.7,1.1,2.1,0.8,3.2c-0.7,3.5-1.3,7-3.6,9.9c-1.7,2.1-3.3,4.3-4.9,6.5c-1.5,2-1,3.4,1.5,3.8
	c1.7,0.2,3.5,0.1,5.2,0.2c4.5,0.2,8.1,2.4,11,5.6c2.6,2.9,3.9,6.6,5.7,10.1c2.3,4.5,2.2,9.9,4.4,14.6c0.7,1.5-0.1,3.2-1.9,3.8
	c-1.7,0.6-2.7-0.6-3.1-2.1c-1.5-5-4.4-9.2-7.5-13.3c-1.7-2.2-3.2-2.6-5.7-1.2c-2.3,1.4-4,3.7-6.6,4.4c-4.3,1.2-5.2,4.1-4.9,8
	c0.1,1.2,0,2.5,0,3.7c0,1.3,0.5,2.4,1.4,3.4c1.9,1.8,3.4,3.9,4.9,5.9c1,1.4,2.2,2.1,3.8,2.5c4.7,1.1,9.2,2.7,11.2,7.9
	c0.3,0.8,1.1,1.2,1.8,1.6c4.2,2.1,8.6,3.7,12.1,7.1c2.1,2.1,4.5,3.6,7,5.2c2,1.2,4.8,2.5,5.3,4.8c0.8,3.7,3.2,5.7,5.8,7.7
	c2.1,1.6,3.9,3.4,4.1,6.1c0.2,2.4,1.5,4.1,3,5.5c2.1,2.1,4.1,4.2,6,6.5c3.6,4.2,7,8.3,8.3,13.8c0.7,3.1,3.6,5.4,3.5,8.8
	c0,2.7,1.2,4.9,3.6,6.4c0.7,0.5,0.9,1.1,0.8,1.9c-0.2,0.9,0.2,1.8,0.3,2.7c0.6,3.9,1.4,7.8,1.6,11.7c0.1,1.5,0.3,2.5,1.5,3.4
	c1.9,1.4,3.1,3.2,4.3,5.2c1.5,2.5,2.8,5.5,6.6,6.2c1.5,0.3,3.6,1.3,3.8,3.7c0.4,4,0.7,4.6,4.8,5.4c2.9,0.6,5.3,2,7.3,3.9
	c3.2,2.9,4.5,7.3,8.1,10.1c1.6,1.3,2.9,3,5,3.9c1.1,0.4,2.1,0.9,3.2,1.3c0.6,0.3,1.2,0.7,1.1,1.5c0,0.8-0.8,1-1.4,1.2
	c-2.1,0.5-4.2,1-6,2.2c-1.4,0.9-1.8,1.8-0.6,3c1.4,1.4,1.1,2.6,0.1,4.1c-0.8,1.4-2.2,2.9-0.8,4.8c2,2.7,3.3,5.7,3.1,9.2
	c-0.1,1.2,0.2,2.3,1,3.3c0.6,0.7,1,1.6,0.9,2.5c-0.5,4.3,2,6.4,5.5,7.7v2c-2.6,1.7-5.2,0.8-7.8-0.2c-0.9-0.3-1.6-1.6-2.6-0.5
	c-0.9,1.1-0.4,2.2,0.5,3.1c1.4,1.3,1.9,3,2.6,4.7c1,2.4,0.3,5.2,2.1,7.3c0.7,0.8,1.6,1.7,0.6,2.8c-0.9,1-2,0.3-2.9-0.2
	c-1.8-1-3.4-2.3-5.5-2.9c-2-0.5-3.5-0.2-4.6,1.8c-1.9,3.5-2,7.3-1.5,11.1c0.3,2.5,0.2,4.7-1.7,6.6c-1.1,1.1-2.5,2.4-2.7,4.1
	c-0.4,2.3-1.8,3.2-3.9,3.3c-1.1,0-2.1,0.2-3.2,0.2c-1.6,0.1-3.2,1-3.1,2.3c0.2,2.7-1.2,4.8-1.8,7.1c-0.5,2.1-0.8,3.9-2.7,5.2
	c-0.7,0.5-1.2,1.3-1.7,2.1c-4.1,6-8.4,11.8-13,17.4c-1.4,1.7-2.1,3.8-3.8,5.1c-2.5,1.9-5.2,3.8-7.4,6.2c-0.8,0.9-1.7,1.6-2.9,1.7
	c-1.9,0.1-3.1,1.3-4.2,2.7c-2.9,3.6-6.8,6.1-11,7.6c-1.9,0.6-3.5,1.3-4.9,2.6c-3.5,3.4-7.8,5.8-11.8,8.5c-1.9,1.3-4.3,2.1-6.5,3.1
	c-1.6,0.7-2.5,1.8-2.8,3.5c-0.6,3.9-3.3,7.5-2.2,11.7c0.1,0.3-0.2,0.8-0.3,1.2c-1.5,4.1,0.1,7.9,2.4,10.9
	C287.6,509,288.5,511.5,290,513.6L290,513.6z"/>
</svg>
