<?xml version="1.0" encoding="utf-8"?>
<!-- Generator: Adobe Illustrator 28.1.0, SVG Export Plug-In . SVG Version: 6.00 Build 0)  -->
<svg version="1.1" id="Layer_1" xmlns="http://www.w3.org/2000/svg" xmlns:xlink="http://www.w3.org/1999/xlink" x="0px" y="0px"
	 viewBox="0 0 512 512" style="enable-background:new 0 0 512 512;" xml:space="preserve">
<style type="text/css">
	.st0{fill:#C8C8C8;}
	.st1{fill:#FFFFFF;}
</style>
<g>
	<rect x="2.5" y="2.5" class="st0" width="507" height="508"/>
	<path class="st0" d="M507.5,4.5v504H4.5V4.5H507.5 M511.5,0.5H0.5v512h511V0.5L511.5,0.5z"/>
</g>
<path class="st1" d="M425.8,511.8C403,485.5,408,310.1,396,231.8c-0.7-4.3-1.5-8.4-2.4-12.4c51.5-20,37.7-77.3,14.7-91.5
	c-27.9-17.2-46.2-3.7-56.2,16.3c-31.1-27.9-70.9-34.9-96.1-34.9s-65,7-96.1,34.9c-10-20-28.4-33.6-56.2-16.3
	c-23,14.2-36.8,71.5,14.7,91.5c-0.9,4-1.7,8.1-2.4,12.4c-11.9,78.3-7,253.8-29.8,280s-38.1,61.3,42,87.5s99.8,28,127.8,28
	s47.7-1.8,127.8-28S448.5,538,425.8,511.8L425.8,511.8z M202.2,214.9c-7.1,0-12.9-5.8-12.9-12.9s5.8-12.9,12.9-12.9
	S215,195,215,202.1S209.2,214.9,202.2,214.9z M288.8,279.3c-1,0.1-2,0.2-3,0.2c-7.2,0-14.7-2.9-20.7-5.7c-3.6-1.7-6.5-3.3-8.3-4.4
	c-1.8,1.1-4.7,2.7-8.3,4.4c-6,2.8-13.5,5.6-20.7,5.7c-1.1,0-2.1-0.1-3.1-0.2c-2.1-0.3-3.6-2.2-3.3-4.3c0.3-2.1,2.2-3.6,4.3-3.3
	c0.6,0.1,1.3,0.1,2,0.1c4.4,0,10.3-1.8,15.3-4c4.2-1.8,7.8-3.8,9.8-5v-11.8c-8.7-1.1-15.4-6.9-19.9-13.8
	c-5.1-7.7,3.8-15.3,22.9-15.3s28.1,7.6,22.9,15.3c-4.3,6.4-10.4,11.9-18.3,13.5v12c0.3,0.2,0.5,0.3,0.9,0.5c1.7,1,4.1,2.3,6.8,3.5
	c5.5,2.6,12.4,5,17.4,5c0.7,0,1.4-0.1,2-0.1c2.1-0.3,4,1.2,4.3,3.3C292.4,277.1,290.9,279,288.8,279.3z M309.9,214.9
	c-7.1,0-12.9-5.8-12.9-12.9s5.8-12.9,12.9-12.9s12.9,5.8,12.9,12.9S316.9,214.9,309.9,214.9z"/>
</svg>
