<?xml version="1.0" encoding="utf-8"?>
<!-- Generator: Adobe Illustrator 28.1.0, SVG Export Plug-In . SVG Version: 6.00 Build 0)  -->
<svg version="1.1" id="Layer_1" xmlns="http://www.w3.org/2000/svg" xmlns:xlink="http://www.w3.org/1999/xlink" x="0px" y="0px"
	 viewBox="0 0 512 512" style="enable-background:new 0 0 512 512;" xml:space="preserve">
<style type="text/css">
	.st0{fill:#C8C8C8;}
	.st1{fill:#FFFFFF;}
</style>
<g>
	<rect x="2.5" y="2.5" class="st0" width="507" height="508"/>
	<path class="st0" d="M507.5,4.5v504H4.5V4.5H507.5 M511.5,0.5H0.5v512h511V0.5L511.5,0.5z"/>
</g>
<path class="st0" d="M507,5v503H5V5H507 M512,0H0v513h512V0L512,0z"/>
<path class="st1" d="M403.8,103c-8,0-14.6,6.5-14.6,14.6c0,18.6-1,33.1-3,44c-1.5,8.2-3.4,14.2-5.6,18.5c-1.6,3.2-3.4,5.4-5.2,7.2
	c-2.8,2.6-6,4.4-11.2,5.8c-5.1,1.4-12.1,2.1-20.7,2.1h-44.5c-4.6,0-6.8-0.9-8-1.6c-0.9-0.6-1.5-1.2-2.3-2.4c-1.1-1.7-2.3-5-2.9-9.6
	c-0.7-4.5-0.9-10.1-0.9-16c0-4.2,0.1-8.6,0.1-13.1c0-8.1-6.5-14.6-14.6-14.6s-14.6,6.5-14.6,14.6c0,4-0.1,8.5-0.1,13.1
	c0,5.8,0.1,11.8,0.9,17.9c0.5,3.8,1.3,7.7,2.4,11.6h-33.1c-4.6,0-6.8-0.9-8-1.6c-0.9-0.6-1.5-1.2-2.3-2.4c-1.1-1.7-2.3-5-2.9-9.6
	c-0.7-4.5-0.9-10.1-0.9-16c0-4.2,0.1-8.6,0.1-13.1c0-8.1-6.5-14.6-14.6-14.6s-14.6,6.5-14.6,14.6c0,4-0.1,8.5-0.1,13.1
	c0,5.8,0.1,11.8,0.9,17.9c0.5,3.8,1.3,7.7,2.4,11.6h-7.7c-13.7,0-23.6-2-30.6-5c-5.3-2.3-9-5-12-8.4c-4.5-5-7.7-11.8-9.8-21.1
	c-2.1-9.2-2.8-20.7-2.8-33.5c0-8.1-6.5-14.6-14.6-14.6s-14.6,6.5-14.6,14.6c0,12.4,0.6,24.3,2.7,35.7c1.6,8.5,4,16.7,7.8,24.3
	c5.7,11.4,15,21.5,27.6,27.9c12.6,6.4,27.9,9.4,46.4,9.4H297v52.5c-0.3,19.5-45.2,20-91.5,25.6c-80.3,9.7-107.5,37.1-93.8,75.9
	c13.6,38.4,49.7,47.1,81.1,47.1s45.6,0.5,49.7,15.7c7.9,28.8,18.3,70.6,18.3,70.6h146.5l-52.3-170.1c0,0,39.2-2.6,47.1-20.9
	c7.9-18.3-13-29.2-36.1-24.4c-26.3,5.5-39.9-3.6-39.9-21.9v-50.1h17.2c12,0,22.8-1,33-4.5c7.6-2.6,14.7-6.8,20.5-12.8
	c4.4-4.4,7.9-9.7,10.7-15.6c4.2-8.9,6.8-19.1,8.5-31.2c1.7-12.1,2.4-26.1,2.4-42.6C418.3,109.5,411.8,103,403.8,103L403.8,103z
	 M257.2,348.6c-6.4,0-11.6-5.2-11.6-11.6s5.2-11.5,11.6-11.5c6.4,0,11.5,5.2,11.5,11.5C268.8,343.4,263.6,348.6,257.2,348.6z"/>
</svg>
