<?xml version="1.0" encoding="utf-8"?>
<!-- Generator: Adobe Illustrator 28.1.0, SVG Export Plug-In . SVG Version: 6.00 Build 0)  -->
<svg version="1.1" id="Layer_1" xmlns="http://www.w3.org/2000/svg" xmlns:xlink="http://www.w3.org/1999/xlink" x="0px" y="0px"
	 viewBox="0 0 16.5 19.5" style="enable-background:new 0 0 16.5 19.5;" xml:space="preserve">
<style type="text/css">
	.st0{fill:#FFFFFF;}
</style>
<path class="st0" d="M5.4,5.9l2.1,1l2.1-1L8.7,8l1,2.1l-2.1-1l-2.1,1l1-2.1L5.4,5.9 M12.5,0l1.1,2.9L16.5,4l-2.9,1.1L12.5,8
	l-1.1-2.9L8.5,4l2.9-1.1L12.5,0 M2,16.5h1v-1c0-0.6,0.5-1,1-1h0.3C2,13.2,0.5,10.8,0.5,8c0-4.1,3.4-7.5,7.5-7.5c1.1,0,2.1,0.2,3,0.6
	l-0.4,1L9.2,2.6C8.8,2.5,8.4,2.5,8,2.5C5,2.5,2.5,5,2.5,8S5,13.5,8,13.5s5.3-2.3,5.5-5.1l0.9-2.5l0.7-0.3c0.2,0.7,0.4,1.5,0.4,2.4
	c0,2.8-1.5,5.2-3.8,6.5H12c0.6,0,1,0.4,1,1v1h1c1.1,0,2,0.9,2,2v1H0v-1C0,17.4,0.9,16.5,2,16.5z"/>
</svg>
