<?xml version="1.0" encoding="utf-8"?>
<!-- Generator: Adobe Illustrator 28.1.0, SVG Export Plug-In . SVG Version: 6.00 Build 0)  -->
<svg version="1.1" id="Layer_1" xmlns="http://www.w3.org/2000/svg" xmlns:xlink="http://www.w3.org/1999/xlink" x="0px" y="0px"
	 viewBox="0 0 24 24" style="enable-background:new 0 0 24 24;" xml:space="preserve">
<style type="text/css">
	.st0{fill:#FFFFFF;}
</style>
<path class="st0" d="M9.4,8.4l2.1,1l2.1-1l-1,2.1l1,2.1l-2.1-1l-2.1,1l1-2.1L9.4,8.4 M16.5,2.5l1.1,2.9l2.9,1.1l-2.9,1.1l-1.1,2.9
	l-1.1-2.9l-2.9-1.1l2.9-1.1L16.5,2.5 M6,19h1v-1c0-0.6,0.4-1,1-1h0.3c-2.3-1.3-3.8-3.7-3.8-6.5C4.5,6.4,7.9,3,12,3
	c1.1,0,2.1,0.2,3,0.6l-0.4,1l-1.4,0.5C12.8,5,12.4,5,12,5c-3,0-5.5,2.5-5.5,5.5S9,16,12,16c2.9,0,5.3-2.3,5.5-5.1l0.9-2.5l0.7-0.3
	c0.2,0.7,0.4,1.5,0.4,2.4c0,2.8-1.5,5.2-3.8,6.5H16c0.6,0,1,0.4,1,1v1h1c1.1,0,2,0.9,2,2v1H4v-1C4,19.9,4.9,19,6,19z"/>
</svg>
