<?xml version="1.0" encoding="utf-8"?>
<!-- Generator: Adobe Illustrator 28.1.0, SVG Export Plug-In . SVG Version: 6.00 Build 0)  -->
<svg version="1.1" id="Layer_1" xmlns="http://www.w3.org/2000/svg" xmlns:xlink="http://www.w3.org/1999/xlink" x="0px" y="0px"
	 viewBox="0 0 24 24" style="enable-background:new 0 0 24 24;" xml:space="preserve">
<style type="text/css">
	.st0{fill:#FFFFFF;}
</style>
<path class="st0" d="M13,18h-2v-2h2V18 M13,15h-2c0-3.2,3-3,3-5c0-1.1-0.9-2-2-2s-2,0.9-2,2H8c0-2.2,1.8-4,4-4s4,1.8,4,4
	C16,12.5,13,12.8,13,15 M22,12c0,5.2-4,9.5-9,10v-2c4-0.5,7-3.9,7-7.9s-3-7.4-7-7.9V2C18,2.5,22,6.8,22,12 M11,2v2
	C9.5,4.2,8.2,4.8,7.1,5.7L5.7,4.3C7.2,3,9,2.2,11,2 M4.1,11H2c0.2-2,1-3.8,2.2-5.3l1.4,1.4C4.8,8.2,4.2,9.5,4.1,11 M11,19.9v2
	c-2-0.2-3.8-1-5.3-2.2l1.4-1.4C8.2,19.2,9.5,19.8,11,19.9 M2,13h2c0.2,1.5,0.8,2.8,1.6,3.9l-1.4,1.4C3,16.9,2.2,15,2,13z"/>
</svg>
