<?xml version="1.0" encoding="utf-8"?>
<!-- Generator: Adobe Illustrator 28.1.0, SVG Export Plug-In . SVG Version: 6.00 Build 0)  -->
<svg version="1.1" id="_x32_" xmlns="http://www.w3.org/2000/svg" xmlns:xlink="http://www.w3.org/1999/xlink" x="0px" y="0px"
	 viewBox="0 0 800 800" style="enable-background:new 0 0 800 800;" xml:space="preserve">
<style type="text/css">
	.st0{fill:#FFFFFF;}
</style>
<g>
	<polygon class="st0" points="256.4,574.4 307.7,683.8 382.9,683.8 400,625.6 417.1,683.8 492.3,683.8 543.6,574.4 400,574.4 	"/>
	<path class="st0" d="M311.1,735c0,0-23.9,18.8-39.3,22.2c-15.4,3.4-13.7,15.4-13.7,15.4V800h124.8v-88.9h-71.8V735z"/>
	<path class="st0" d="M528.2,757.3c-15.4-3.4-39.3-22.2-39.3-22.2v-23.9h-71.8V800h124.8v-27.4C541.9,772.6,543.6,760.7,528.2,757.3
		z"/>
	<path class="st0" d="M112,555.6c-1,34.4,32.7,43.8,36,34.1c3.3-9.7,9.9-22.6,13.3-38.8c-5.7-8.5-3.6-33.8-3.6-33.8
		s1.8,20.1,17.3,25.5c15.5,5.3,16.2-66,16.2-66l-52.4-18C138.9,458.5,113,521.2,112,555.6z"/>
	<path class="st0" d="M661.2,458.5l-52.4,18c0,0,0.7,71.3,16.2,66c15.5-5.3,17.3-25.5,17.3-25.5s2.2,25.3-3.6,33.8
		c3.4,16.2,10,29.1,13.3,38.8c3.3,9.7,37,0.3,36-34.1C687.1,521.2,661.2,458.5,661.2,458.5z"/>
	<path class="st0" d="M458.1,470.6V441h126.5l69.5-23.9c0,0-26.1-84.8-80.3-153.1c-6.9,7.3-16.5,11.8-27.3,11.8
		c-20.8,0-37.6-16.8-37.6-37.6c0-8.1,2.6-15.6,6.9-21.7c0.8-1.1,1.6-2.1,2.4-3c0.2-0.2,0.4-0.4,0.6-0.7c6.9-7.5,16.7-12.2,27.7-12.2
		c2,0,4,0.2,6,0.5c-10.7-31.8-32.2-95.7-33.9-100.8c0-0.1-0.1-0.1-0.1-0.2C503.9,42.4,456.5,0,400,0c-58.4,0-107.3,45.3-119.8,106
		h171.5l26.4,45.6H315.7c2,27,27.7,62,84.3,41c50.9,18.9,76.7-7.5,82.9-32.6l29.3,50.8c-2.3,3-4.7,6-7.4,9.2
		C457,276.9,400,272.4,400,272.4s-57,4.6-104.8-52.4c-3.6-4.3-6.8-8.4-9.7-12.3c-94.6,63.2-139.6,209.4-139.6,209.4l69.5,23.9h126.5
		v29.6H215.4l-16,77.5H400h200.6l-16-77.5H458.1z M400,295.2c11.3,0,20.5,9.2,20.5,20.5s-9.2,20.5-20.5,20.5
		c-11.3,0-20.5-9.2-20.5-20.5C379.5,304.3,388.7,295.2,400,295.2z M400,362.4c11.3,0,20.5,9.2,20.5,20.5c0,11.3-9.2,20.5-20.5,20.5
		c-11.3,0-20.5-9.2-20.5-20.5C379.5,371.6,388.7,362.4,400,362.4z M430.8,470.6H400h-30.8V441H400h30.8V470.6z"/>
</g>
</svg>
